# xmcd
#
# Track frame offsets:
#	150
#	13700
#	36259
#	53334
#	65604
#	84335
#	106644
#	122917
#	140368
#	153708
#	175993
#	191346
#	210974
#	226567
#
# Disc length: 3254 seconds
#
# Revision: 0
# Processed by: cddbd v1.5.2PL0 Copyright (c) Steve Scherf et al.
# Submitted via: dBpowerAMP V4.0
#
DISCID=a80cb40e
DTITLE=Charlie Wood and The New Memphis Underground - Carlie Wood and The New Memphis Underground
DYEAR=2007
DGENRE=Blues
TTITLE0=Let It Rpip
TTITLE1=Brand New Feelin'
TTITLE2=I Just Want You Cause I Want You
TTITLE3=Too Much Is Not Enough
TTITLE4=Keep It Comin'
TTITLE5=Please Send Someone To Love
TTITLE6=Don't Let The Money Get Funny, Honey
TTITLE7=I Almost Forgot About The Blues
TTITLE8=Come On If You're Comin'
TTITLE9=Drown In My Own Tears
TTITLE10=Coffee Is For Me
TTITLE11=You Don't Really Wanna Know
TTITLE12=Boot Leg
TTITLE13=City Home
EXTD=
EXTT0=
EXTT1=
EXTT2=
EXTT3=
EXTT4=
EXTT5=
EXTT6=
EXTT7=
EXTT8=
EXTT9=
EXTT10=
EXTT11=
EXTT12=
EXTT13=
PLAYORDER=
